<svg xmlns="http://www.w3.org/2000/svg" viewBox="0 0 502.42 102.11"><defs><style>.cls-1{font-size:83.64px;font-family:LemonMilkbold, "Lemon/Milk";letter-spacing:0.05em;}.cls-1,.cls-7{fill:#2e4986;}.cls-2{letter-spacing:0.03em;}.cls-3{letter-spacing:0.05em;}.cls-4{fill:#f9d53d;}.cls-5{fill:#ceb23b;}.cls-6{fill:#172950;}.cls-8{fill:#fff;}</style></defs><title>Asset 1</title><g id="Layer_2" data-name="Layer 2"><g id="Layer_1-2" data-name="Layer 1"><text class="cls-1" transform="translate(0 75.56) scale(0.98 1)"><tspan xml:space="preserve">c   p</tspan><tspan class="cls-2" x="218.77" y="0">f</tspan><tspan class="cls-3" x="272.7" y="0">olio</tspan></text><polygon class="cls-4" points="140.84 32.49 112.5 22.65 75.74 32.49 104.96 43.55 140.84 32.49"/><polygon class="cls-5" points="75.74 32.49 106.09 21.92 104.96 43.55 75.74 32.49"/><polygon class="cls-6" points="104.96 0 104.96 38.92 75.74 28.28 104.96 0"/><polygon class="cls-7" points="104.96 0 104.96 38.92 140.84 28.03 104.96 0"/><polygon class="cls-7" points="75.74 32.49 104.96 43.55 140.84 32.49 140.84 66.89 104.96 77.46 75.74 64.93 75.74 32.49"/><ellipse class="cls-8" cx="123.92" cy="70.48" rx="17.6" ry="10.76" transform="translate(43.9 188.47) rotate(-85.49)"/><path class="cls-4" d="M134.73,68.69c-.08-5.43-1.71-10.52-4.69-13.45C125.47,50.78,119.37,53,115.81,60Z"/><polygon class="cls-6" points="75.74 32.49 104.96 43.55 104.96 77.46 75.74 64.93 75.74 32.49"/></g></g></svg>